HIERARCHY
ROOT Hips
{
	OFFSET -0.001795 -0.223333 0.028219
	CHANNELS 6 Xposition Yposition Zposition Zrotation Yrotation Xrotation 
	JOINT LeftUpLeg
	{
		OFFSET 0.069520 -0.091406 -0.006815
		CHANNELS 3 Zrotation Yrotation Xrotation
		JOINT LeftLeg
		{
			OFFSET 0.034277 -0.375199 -0.004496
			CHANNELS 3 Zrotation Yrotation Xrotation
			JOINT LeftFoot
			{
				OFFSET -0.013596 -0.397961 -0.043693
				CHANNELS 3 Zrotation Yrotation Xrotation
				JOINT LeftToe
				{
					OFFSET 0.026358 -0.055791 0.119288
					CHANNELS 3 Zrotation Yrotation Xrotation
					End Site
					{
						OFFSET 0.000000 0.000000 0.000000
					}
				}
			}
		}
	}
	JOINT RightUpLeg
	{
		OFFSET -0.067670 -0.090522 -0.004320
		CHANNELS 3 Zrotation Yrotation Xrotation
		JOINT RightLeg
		{
			OFFSET -0.038290 -0.382569 -0.008850
			CHANNELS 3 Zrotation Yrotation Xrotation
			JOINT RightFoot
			{
				OFFSET 0.015774 -0.398415 -0.042312
				CHANNELS 3 Zrotation Yrotation Xrotation
				JOINT RightToe
				{
					OFFSET -0.025372 -0.048144 0.123348
					CHANNELS 3 Zrotation Yrotation Xrotation
					End Site
					{
						OFFSET 0.000000 0.000000 0.000000
					}
				}
			}
		}
	}
	JOINT Spine
	{
		OFFSET -0.002533 0.108963 -0.026696
		CHANNELS 3 Zrotation Yrotation Xrotation
		JOINT Spine1
		{
			OFFSET 0.005487 0.135180 0.001092
			CHANNELS 3 Zrotation Yrotation Xrotation
			JOINT Spine2
			{
				OFFSET 0.001457 0.052922 0.025425
				CHANNELS 3 Zrotation Yrotation Xrotation
				JOINT Neck
				{
					OFFSET -0.002778 0.213870 -0.042857
					CHANNELS 3 Zrotation Yrotation Xrotation
					JOINT Head
					{
						OFFSET 0.005152 0.064970 0.051349
						CHANNELS 3 Zrotation Yrotation Xrotation
						End Site
						{
							OFFSET 0.000000 0.000000 0.000000
						}
					}
				}
				JOINT LeftShoulder
				{
					OFFSET 0.078845 0.121749 -0.034090
					CHANNELS 3 Zrotation Yrotation Xrotation
					JOINT LeftArm
					{
						OFFSET 0.090977 0.030469 -0.008868
						CHANNELS 3 Zrotation Yrotation Xrotation
						JOINT LeftForeArm
						{
							OFFSET 0.259612 -0.012772 -0.027456
							CHANNELS 3 Zrotation Yrotation Xrotation
							JOINT LeftHand
							{
								OFFSET 0.249234 0.008986 -0.001171
								CHANNELS 3 Zrotation Yrotation Xrotation
								End Site
								{
									OFFSET 0.000000 0.000000 0.000000
								}
							}
						}
					}
				}
				JOINT RightShoulder
				{
					OFFSET -0.081759 0.118833 -0.038615
					CHANNELS 3 Zrotation Yrotation Xrotation
					JOINT RightArm
					{
						OFFSET -0.096012 0.032551 -0.009143
						CHANNELS 3 Zrotation Yrotation Xrotation
						JOINT RightForeArm
						{
							OFFSET -0.253742 -0.013329 -0.021401
							CHANNELS 3 Zrotation Yrotation Xrotation
							JOINT RightHand
							{
								OFFSET -0.255298 0.007772 -0.005559
								CHANNELS 3 Zrotation Yrotation Xrotation
								End Site
								{
									OFFSET 0.000000 0.000000 0.000000
								}
							}
						}
					}
				}
			}
		}
	}
}
MOTION
Frames: 13
Frame Time: 0.050000
-0.132725 0.931549 0.402905 0.214785 -11.039089 -3.049606 2.028125 -0.471544 -7.100000 0.687263 -0.281815 7.376555 3.526539 8.414564 6.121075 0.000000 0.000000 0.000000 -0.050804 -0.356248 4.334941 0.798675 0.101041 4.244846 -9.594795 -22.200150 4.059731 0.000000 0.000000 0.000000 -4.279882 0.020188 3.859436 -1.126599 0.574344 1.572984 4.981643 2.165683 10.581740 3.176459 -0.785527 -22.705654 0.000000 0.000000 0.000000 -8.612890 -5.722715 2.293481 -55.556034 -25.520391 5.213812 33.915112 -57.712249 -14.434154 0.000000 0.000000 0.000000 8.216846 18.588593 6.601619 48.103853 31.013197 7.140444 -28.658697 61.727666 -15.501840 0.000000 0.000000 0.000000 
-0.128638 0.932968 0.407184 -0.102557 -10.657227 -2.464912 2.276074 -0.476018 -7.405148 0.621031 -0.278555 7.719664 3.560221 8.454795 5.783738 0.000000 0.000000 0.000000 -0.698056 -0.175718 2.538318 1.541928 0.080575 6.007477 -9.795852 -22.695837 4.591558 0.000000 0.000000 0.000000 -4.592191 0.047157 4.699357 -0.899444 0.451744 1.229383 4.874810 1.957293 10.584814 3.149288 -0.787537 -22.473903 0.000000 0.000000 0.000000 -7.907609 -7.183798 2.903329 -54.060773 -27.807067 6.131873 36.133816 -52.194920 -13.970507 0.000000 0.000000 0.000000 8.022291 19.094866 6.817544 47.757618 32.349523 7.616621 -31.434816 58.225136 -15.938690 0.000000 0.000000 0.000000 
-0.125308 0.934280 0.409034 -0.322011 -10.133714 -1.834506 2.298826 -0.518703 -8.008763 0.369375 -0.237067 7.913491 3.508091 8.397464 5.877257 0.000000 0.000000 0.000000 -1.156051 0.022504 0.301843 2.273211 0.069290 8.441812 -10.085596 -23.340032 4.663928 0.000000 0.000000 0.000000 -4.829248 0.074641 5.361341 -0.878953 0.442254 1.329827 4.758346 1.707096 10.399008 3.004426 -0.658508 -22.891489 0.000000 0.000000 0.000000 -7.116975 -8.280161 3.325531 -53.200714 -30.323857 7.269061 38.361841 -47.099681 -13.438118 0.000000 0.000000 0.000000 7.718896 19.331890 6.915995 47.873387 34.351727 8.488057 -34.463622 53.511438 -15.893498 0.000000 0.000000 0.000000 
-0.122578 0.935843 0.409684 -0.566224 -10.056139 -1.184020 2.292232 -0.556895 -8.566548 0.377747 -0.242951 8.167992 3.710556 8.734855 5.573963 0.000000 0.000000 0.000000 -1.460848 0.204525 -1.805298 2.648507 0.065514 9.871611 -10.253030 -23.715188 4.566568 0.000000 0.000000 0.000000 -4.760982 0.089374 6.169806 -0.865834 0.426372 0.784397 4.367035 1.566460 10.625340 2.652739 -0.526200 -22.253420 0.000000 0.000000 0.000000 -7.129520 -8.759870 3.542100 -52.449136 -31.997191 7.919378 41.159671 -44.615488 -13.779343 0.000000 0.000000 0.000000 7.490054 19.417661 6.945139 48.000962 36.221441 9.275453 -36.674324 49.832688 -15.618064 0.000000 0.000000 0.000000 
-0.120652 0.937076 0.410107 -0.583976 -9.554145 -0.793764 2.268301 -0.571165 -8.658413 0.389801 -0.249615 8.089260 3.643479 8.657234 5.722585 0.000000 0.000000 0.000000 -1.784790 0.338205 -3.347487 2.853266 0.029168 10.038593 -10.244789 -23.793868 5.224113 0.000000 0.000000 0.000000 -4.622507 0.088865 6.730702 -0.738654 0.365724 0.936146 4.023358 1.445923 10.573972 2.635258 -0.470626 -22.473596 0.000000 0.000000 0.000000 -7.034092 -8.835817 3.547761 -52.913478 -33.727369 8.900790 43.914261 -42.946709 -14.328426 0.000000 0.000000 0.000000 7.382374 19.625657 7.059290 48.253048 37.664233 9.979469 -38.865850 46.537112 -15.326534 0.000000 0.000000 0.000000 
-0.119444 0.937774 0.410530 -0.640289 -9.073402 -0.548123 2.326330 -0.563090 -8.515107 0.306827 -0.233989 7.831445 3.592038 8.579492 5.657957 0.000000 0.000000 0.000000 -2.061566 0.398504 -4.046098 2.662387 0.039123 9.652441 -10.178275 -23.730818 6.056486 0.000000 0.000000 0.000000 -4.293808 0.069810 7.357493 -0.867204 0.427885 0.954635 3.491377 1.303182 10.517793 2.675538 -0.522828 -21.785167 0.000000 0.000000 0.000000 -7.178178 -9.229590 3.701602 -52.643563 -34.739403 9.331226 47.841109 -42.390667 -15.748963 0.000000 0.000000 0.000000 8.035304 19.637949 7.143414 47.871446 38.846109 10.412831 -41.465993 43.564792 -15.234608 0.000000 0.000000 0.000000 
-0.119064 0.938230 0.410604 -0.508699 -8.783814 -0.413785 2.314575 -0.566973 -8.507381 0.388586 -0.255605 7.964912 3.564307 8.563920 5.790120 0.000000 0.000000 0.000000 -2.271215 0.442254 -4.572874 2.711957 0.012037 9.259412 -10.465323 -24.287019 7.161192 0.000000 0.000000 0.000000 -3.971245 0.046147 7.737403 -1.076186 0.532494 1.125710 3.216818 1.409272 10.724628 2.505111 -0.399128 -21.688338 0.000000 0.000000 0.000000 -7.774866 -9.276768 3.726611 -52.693077 -35.812364 9.826306 51.544743 -42.089470 -17.182965 0.000000 0.000000 0.000000 8.521218 19.674303 7.246610 47.934712 39.930593 10.917059 -43.686229 41.564358 -15.241143 0.000000 0.000000 0.000000 
-0.119204 0.938189 0.410284 -0.465648 -8.412570 -0.125450 2.395256 -0.568161 -8.555669 0.283977 -0.235543 7.786284 3.502899 8.443656 5.622967 0.000000 0.000000 0.000000 -2.525432 0.464945 -4.846853 2.560341 0.007642 8.582851 -10.636770 -24.602985 8.316819 0.000000 0.000000 0.000000 -3.960531 0.050583 8.349795 -1.175000 0.577501 0.966362 2.951578 1.586956 10.868147 2.326924 -0.277344 -21.330782 0.000000 0.000000 0.000000 -8.461653 -9.764280 3.932042 -52.233573 -36.584445 10.024657 54.256130 -41.557628 -18.150625 0.000000 0.000000 0.000000 9.108107 19.777802 7.411997 47.272806 40.947204 11.179848 -45.403459 39.515883 -14.940532 0.000000 0.000000 0.000000 
-0.119705 0.938245 0.409567 -0.418322 -8.005641 0.010400 2.558775 -0.571084 -8.756037 0.200497 -0.227109 7.961810 3.402059 8.306454 5.805860 0.000000 0.000000 0.000000 -2.583230 0.487699 -5.141048 2.597169 -0.016249 8.220099 -11.029238 -25.278752 9.108207 0.000000 0.000000 0.000000 -3.800441 0.037925 8.953015 -1.266268 0.623327 1.117473 2.832820 1.557831 10.783484 2.302375 -0.248678 -21.168315 0.000000 0.000000 0.000000 -9.270772 -9.902407 4.010875 -51.595520 -36.947142 9.991490 56.383452 -40.999103 -18.816592 0.000000 0.000000 0.000000 9.837339 19.765158 7.506702 46.549515 41.282414 11.122965 -46.626857 39.004932 -15.143130 0.000000 0.000000 0.000000 
-0.120243 0.937973 0.408808 -0.494189 -7.770337 0.289731 2.901288 -0.563086 -9.046692 0.111982 -0.213696 8.035278 3.347568 8.200580 5.709736 0.000000 0.000000 0.000000 -2.544580 0.525952 -5.605337 2.574499 -0.024651 7.943854 -11.191741 -25.553989 9.598786 0.000000 0.000000 0.000000 -3.513382 0.014066 9.602023 -1.470354 0.724992 1.236664 2.714090 1.668347 10.775979 2.272373 -0.250043 -20.515727 0.000000 0.000000 0.000000 -9.857084 -10.465362 4.261699 -50.628721 -36.995599 9.707354 58.488071 -40.412683 -19.464767 0.000000 0.000000 0.000000 10.303264 19.723511 7.581604 45.614838 41.236871 10.822454 -47.992382 38.819702 -15.525138 0.000000 0.000000 0.000000 
-0.120951 0.938039 0.407958 -0.578262 -7.469583 0.478653 3.153613 -0.557347 -9.254222 0.138071 -0.222294 8.043186 3.230286 8.027115 5.871788 0.000000 0.000000 0.000000 -2.541038 0.554729 -5.959081 2.577836 -0.039429 7.616214 -11.255396 -25.638542 10.438214 0.000000 0.000000 0.000000 -3.229220 -0.015058 10.158562 -1.605400 0.796037 1.564119 2.571796 1.853718 10.649479 2.418180 -0.290495 -20.427783 0.000000 0.000000 0.000000 -10.213635 -10.653844 4.307536 -49.948790 -36.848778 9.428727 59.776451 -40.259985 -20.048360 0.000000 0.000000 0.000000 10.573763 19.367609 7.515915 45.092330 40.755962 10.484267 -49.366328 39.355470 -16.230215 0.000000 0.000000 0.000000 
-0.121798 0.937944 0.407219 -0.683034 -7.194984 0.685489 3.467462 -0.540689 -9.363915 0.110562 -0.216025 7.845707 3.162861 7.988027 6.255290 0.000000 0.000000 0.000000 -2.540482 0.578587 -6.248709 2.691903 -0.069342 7.317477 -11.397001 -25.860770 10.892140 0.000000 0.000000 0.000000 -3.009372 -0.039676 10.650558 -1.613951 0.800536 1.678214 2.469308 1.871462 10.874446 2.368746 -0.292051 -19.825640 0.000000 0.000000 0.000000 -10.663359 -10.804361 4.378917 -49.039648 -36.337443 8.897116 61.326886 -40.350555 -20.807975 0.000000 0.000000 0.000000 10.931067 19.392392 7.602430 44.169005 40.149195 9.939906 -50.266709 39.824395 -16.763735 0.000000 0.000000 0.000000 
-0.122646 0.937799 0.406470 -0.741713 -7.239693 1.043188 3.652497 -0.541319 -9.648278 0.125188 -0.215439 7.717218 3.250989 8.187497 6.490077 0.000000 0.000000 0.000000 -2.531577 0.613923 -6.650665 2.678455 -0.074739 7.025300 -11.561537 -26.128875 11.161203 0.000000 0.000000 0.000000 -2.943504 -0.043129 10.830139 -1.706119 0.847088 1.711336 2.471728 1.980945 11.000280 2.387517 -0.313518 -19.577224 0.000000 0.000000 0.000000 -10.892214 -10.669631 4.321133 -48.290990 -35.568061 8.323263 62.416935 -40.817592 -21.574187 0.000000 0.000000 0.000000 10.878698 19.338385 7.598793 43.936206 39.117795 9.448042 -50.502248 40.413497 -17.114912 0.000000 0.000000 0.000000 
